<?xml version="1.0" encoding="UTF-8" standalone="no"?>
<svg
   xmlns:dc="http://purl.org/dc/elements/1.1/"
   xmlns:cc="http://creativecommons.org/ns#"
   xmlns:rdf="http://www.w3.org/1999/02/22-rdf-syntax-ns#"
   xmlns:svg="http://www.w3.org/2000/svg"
   xmlns="http://www.w3.org/2000/svg"
   xmlns:sodipodi="http://sodipodi.sourceforge.net/DTD/sodipodi-0.dtd"
   xmlns:inkscape="http://www.inkscape.org/namespaces/inkscape"
   height="480pt"
   viewBox="-24 0 480 480"
   width="480pt"
   version="1.1"
   id="svg14"
   sodipodi:docname="csv.svg"
   inkscape:export-filename="D:\xampp\htdocs\projects-electron\Electron-Simple-Spreadsheet-Editor\app\imgs\csv.svg.png"
   inkscape:export-xdpi="19.200001"
   inkscape:export-ydpi="19.200001"
   inkscape:version="0.92.4 (5da689c313, 2019-01-14)">
  <metadata
     id="metadata20">
    <rdf:RDF>
      <cc:Work
         rdf:about="">
        <dc:format>image/svg+xml</dc:format>
        <dc:type
           rdf:resource="http://purl.org/dc/dcmitype/StillImage" />
      </cc:Work>
    </rdf:RDF>
  </metadata>
  <defs
     id="defs18" />
  <sodipodi:namedview
     pagecolor="#ffffff"
     bordercolor="#666666"
     borderopacity="1"
     objecttolerance="10"
     gridtolerance="10"
     guidetolerance="10"
     inkscape:pageopacity="0"
     inkscape:pageshadow="2"
     inkscape:window-width="1908"
     inkscape:window-height="1002"
     id="namedview16"
     showgrid="false"
     showguides="false"
     inkscape:zoom="1.0429825"
     inkscape:cx="575.99534"
     inkscape:cy="398.15305"
     inkscape:window-x="-4"
     inkscape:window-y="861"
     inkscape:window-maximized="0"
     inkscape:current-layer="svg14" />
  <path
     style="fill:#ffffff;stroke:#000000;stroke-width:0.75px;stroke-linecap:butt;stroke-linejoin:miter;stroke-opacity:1"
     d="m 110.47014,19.062257 c -1.06917,2.273967 -2.95017,-0.454793 -4.31455,0 -0.50848,0.169492 -0.97859,0.443333 -1.43818,0.719092 -0.74108,0.444648 -1.38428,1.051683 -2.15728,1.438183 -0.67797,0.338983 -1.47931,0.380109 -2.15728,0.719092 -0.591538,0.29577 -2.344535,2.521814 -2.87636,2.876366 -0.160163,0.106774 -4.151865,-0.04067 -4.314555,0 -0.400673,0.100169 -2.302567,2.589468 -2.876363,2.876367 -0.67797,0.338983 -1.479307,0.380109 -2.157277,0.719092 -0.773002,0.3865 -1.384275,1.051683 -2.15727,1.438183 -0.77316,0.386577 -0.665033,-0.386577 -1.438185,0 -0.303195,0.151598 -0.43704,0.531058 -0.719092,0.719092 -0.445965,0.297307 -0.99222,0.421783 -1.438185,0.719091 -1.652018,1.101345 0.308347,0.410744 -1.438185,2.157275 -2.207175,2.207181 -0.597908,-0.420138 -2.876363,0.719092 -2.58621,1.293103 -0.527017,1.24611 -2.157277,2.876366 -0.378998,0.378995 -0.99222,0.421784 -1.438185,0.719092 -0.620505,0.41367 -1.595603,1.595602 -2.15727,2.157275 -0.2397,0.239697 -0.415898,0.567494 -0.719093,0.719092 -0.214395,0.107195 -0.519652,-0.132961 -0.719092,0 -0.564105,0.376068 -0.958793,0.958789 -1.438185,1.438183 -1.198485,1.198486 -2.39697,2.396972 -3.595455,3.595458 -0.460538,0.460535 -2.427743,2.203431 -2.87637,2.876367 -2.093775,3.140664 0.318705,-0.237026 -0.719093,2.876366 -0.107197,0.321588 -0.479392,0.479395 -0.719092,0.719092 -0.239693,0.239697 -0.43704,0.531057 -0.719085,0.719091 -0.445965,0.297309 -0.992228,0.421784 -1.438185,0.719092 -1.402935,0.935288 -0.355395,0.347083 -0.719093,1.438184 -0.169492,0.508474 -0.421785,0.992221 -0.719092,1.438182 -0.19695,0.295424 -1.861853,1.960327 -2.157278,2.157276 -0.445957,0.297307 -1.059187,0.340097 -1.438177,0.719091 -6.9e-4,6.87e-4 7.5e-4,2.154016 0,2.157275 -0.107198,0.321588 -0.567495,0.415896 -0.719093,0.719092 -0.107197,0.214391 0.10719,0.5047 0,0.719091 -0.151597,0.303196 -0.4794,0.479395 -0.719092,0.719092 -0.2397,0.719092 -0.380108,1.479309 -0.719093,2.157275 -0.412192,0.824379 -1.500394,1.000262 -2.157276,1.438183 -0.295423,0.196948 -1.960326,1.861853 -2.157274,2.157275 -0.297309,0.445961 -0.421785,0.992222 -0.719092,1.438184 -0.564102,0.846152 -1.547105,1.343715 -2.157275,2.157274 -0.321588,0.428783 -0.5496,0.929709 -0.719092,1.438184 -0.0758,0.227397 0.169492,0.5496 0,0.719089 -0.04608,0.04605 -2.74242,1.348889 -2.876366,1.438185 -0.989256,0.659505 -0.739571,1.109355 -1.438184,2.157277 -0.196948,0.295425 -1.861852,1.960328 -2.157274,2.15727 -0.133947,0.0893 -2.830288,1.392105 -2.876367,1.438185 -1.746531,1.746533 0.213834,1.055933 -1.438183,2.157278 -1.239431,0.82629 -1.086968,0.719092 -2.157275,0.719092 -0.239697,0 -0.5047,-0.107198 -0.719092,0 -0.303196,0.151598 -0.415896,0.567495 -0.719092,0.719092 -0.677966,0.338978 -1.621295,0.183113 -2.157274,0.719093 -0.53598,0.535972 -0.380109,1.479307 -0.719092,2.15727 -0.151598,0.303195 -0.531058,0.43704 -0.719092,0.719092 -0.297307,0.445965 -0.340097,1.059188 -0.719092,1.438185 -0.378994,0.37899 -0.992221,0.421785 -1.438183,0.719093 -0.282051,0.188032 -0.479394,0.479392 -0.719091,0.719092 -0.239698,0.239693 -0.567494,0.41589 -0.719092,0.719093 -0.338983,0.677962 -0.570438,1.414005 -0.719092,2.15727 -0.09402,0.470085 0,0.958792 0,1.438185 0,2.157277 0,4.314545 0,6.471825 0,0.61348 -0.13359,4.76646 0,5.03364 2.384927,2.38492 -0.338983,-0.67796 0.719092,1.43818 0.151598,0.3032 0.636876,0.39024 0.719092,0.7191 0.174405,0.69762 -0.321588,1.5141 0,2.15727 0.56945,1.1389 3.411602,3.11062 4.31455,4.31455 0.321587,0.42878 0.5496,0.92971 0.719091,1.43819 0.0758,0.22739 -0.0758,0.49169 0,0.71908 0.175168,0.52551 0.779983,1.82818 1.438183,2.15728 0.445415,0.2227 2.6636,-0.21277 2.876367,0 0.378995,0.379 0.340097,1.05919 0.719092,1.43818 0.169491,0.1695 0.479394,0 0.719091,0 0.239698,0 0.479395,0 0.719092,0 3.835155,0 7.67031,0 11.505466,0 4.074853,0 8.149704,0 12.224559,0 0.958785,0 1.917578,0 2.876363,0 0.4794,0 0.983392,0.1516 1.438185,0 0.508477,-0.16949 0.958792,-0.47939 1.438185,-0.71909 0.479392,-0.2397 0.99222,-0.42178 1.438185,-0.71909 0.282052,-0.18803 0.415897,-0.5675 0.719092,-0.71909 0.32718,-0.16359 3.438675,0.0392 3.595455,0 0.32886,-0.0822 0.415898,-0.5675 0.719093,-0.7191 0.393262,-0.19662 1.667902,0.12235 2.157277,0 0.735353,-0.18384 1.421918,-0.53525 2.15727,-0.71909 0.531773,-0.13294 4.705365,0 5.03364,0 0.719093,0 1.48962,0.26707 2.157278,0 0.629475,-0.25179 0.958792,-0.95878 1.438185,-1.43818 0.719092,-0.2397 1.421917,-0.53525 2.157277,-0.71909 0.232538,-0.0581 0.479393,0 0.719085,0 0.958793,0 1.917578,0 2.87637,0 2.39697,0 4.793948,0 7.190918,0 0.904762,0 3.005392,0.23603 3.595452,0 4.77555,-1.91022 -1.507002,-1.06144 2.87637,-2.15728 0.47709,-0.11927 3.70448,0 4.31455,0 0.47939,0 0.98339,0.1516 1.43819,0 0.32158,-0.10719 0.41589,-0.56749 0.71909,-0.71909 0.21439,-0.1072 0.47939,0 0.71909,0 0.47939,0 0.98339,0.1516 1.43818,0 0.15155,-0.0506 2.02557,-1.95971 2.15728,-2.15727 0.2973,-0.44596 0.42178,-0.99223 0.71909,-1.43818 0.71909,-1.07865 1.43818,-0.7191 2.15728,-2.15728 0.32158,-0.64318 0,-1.43819 0,-2.15728 0,-1.91758 0,-3.83515 0,-5.75273 0,-2.15727 0,-4.314548 0,-6.471825 0,-0.719085 0,-1.438178 0,-2.15727 0,-0.2397 -0.1072,-0.504705 0,-0.719093 0.30319,-0.60639 1.27374,-0.780457 1.43817,-1.438185 0.17441,-0.69762 0,-1.438185 0,-2.157277 0,-1.677878 0,-3.355755 0,-5.03364 0,-0.479393 -0.15159,-0.983385 0,-1.438185 0.02,-0.05992 1.32604,-1.28865 1.43819,-1.438178 0.51854,-0.691395 1.11721,-1.354852 1.43818,-2.157277 0.17805,-0.44511 0,-0.958785 0,-1.438185 0,-0.719093 -0.11821,-1.447965 0,-2.157273 0.12462,-0.747676 0.57044,-1.414006 0.7191,-2.157275 0.094,-0.470085 -0.1516,-0.98339 0,-1.438183 0.10719,-0.321588 0.63687,-0.39023 0.71909,-0.719092 0.31213,-1.24852 -0.31214,-3.06603 0,-4.31455 0.60049,-2.401989 2.1034,-1.33043 2.87636,-2.876367 0.13165,-0.263286 0,-4.745804 0,-5.752733 0,-4.31455 0,-8.629099 0,-12.943649 0,-2.876366 0,-5.752733 0,-8.6291 0,-0.239697 0,-0.479394 0,-0.719091 0,-0.479395 0.33899,-1.0992 0,-1.438184 -0.50307,-0.503072 -2.21185,0.33226 -2.87636,0 -0.6064,-0.303196 -0.8318,-1.134988 -1.43819,-1.438183 -0.46459,-0.232297 -3.13086,0.232297 -3.59546,0 -0.30319,-0.151598 -0.39022,-0.636876 -0.71908,-0.719091 -0.69763,-0.174406 -1.43819,0 -2.15728,0 -0.2397,0 -0.5047,0.107195 -0.71909,0 -0.3032,-0.151599 -0.4794,-0.479395 -0.7191,-0.719092 -0.23969,-0.239698 -0.53106,-0.437041 -0.71909,-0.719092 -0.29731,-0.445962 -0.34009,-1.059189 -0.71909,-1.438183 -0.37899,-0.378995 -1.14087,-0.27313 -1.43818,-0.719092 -0.26592,-0.39888 0,-0.958789 0,-1.438183 0,-2.157275 0,-4.31455 0,-6.471825 z"
     id="path26"
     inkscape:connector-curvature="0" />
  <rect
     id="rect22"
     width="332.93945"
     height="176.89655"
     x="87.459206"
     y="160.00421"
     style="stroke-width:0.75;fill:#ffffff" />
  <path
     d="m88 320v-144c.027344-8.824219 7.175781-15.972656 16-16h272v-136c-.027344-8.824219-7.175781-15.972656-16-16h-248v80c0 8.835938-7.164062 16-16 16h-88v352c.027344 8.824219 7.175781 15.972656 16 16h336c8.824219-.027344 15.972656-7.175781 16-16v-120h-272c-8.824219-.027344-15.972656-7.175781-16-16zm0 0"
     fill="#9bc9ff"
     id="path2" />
  <g
     fill="#1e81ce"
     id="g12">
    <path
       d="m136 208h32c4.417969 0 8 3.582031 8 8s3.582031 8 8 8 8-3.582031 8-8c0-13.253906-10.746094-24-24-24h-32c-13.253906 0-24 10.746094-24 24v64c0 13.253906 10.746094 24 24 24h32c13.253906 0 24-10.746094 24-24 0-4.417969-3.582031-8-8-8s-8 3.582031-8 8-3.582031 8-8 8h-32c-4.417969 0-8-3.582031-8-8v-64c0-4.417969 3.582031-8 8-8zm0 0"
       id="path4" />
    <path
       d="m264 240h-32c-4.417969 0-8-3.582031-8-8v-16c0-4.417969 3.582031-8 8-8h32.40625c2.046875-.003906 4.007812.820312 5.433594 2.289062 1.476562 1.523438 2.257812 3.589844 2.160156 5.710938-.042969 4.417969 3.5 8.035156 7.921875 8.078125 4.417969.046875 8.035156-3.5 8.078125-7.917969.148438-6.355468-2.269531-12.5-6.710938-17.046875-4.441406-4.546875-10.527343-7.109375-16.882812-7.113281h-32.40625c-13.253906 0-24 10.746094-24 24v16c0 13.253906 10.746094 24 24 24h32c4.417969 0 8 3.582031 8 8v16c0 4.417969-3.582031 8-8 8h-32c-4.460938-.042969-8.039062-3.691406-8-8.152344-.085938-4.339844-3.660156-7.796875-8-7.742187h-.136719c-4.421875.125-7.925781 3.78125-7.863281 8.207031.21875 13.113281 10.886719 23.640625 24 23.6875h32c13.253906 0 24-10.746094 24-24v-16c0-13.253906-10.746094-24-24-24zm0 0"
       id="path6" />
    <path
       d="m395.078125 192.617188c-4.078125-1.703126-8.761719.222656-10.460937 4.304687l-32.617188 78.277344-32.617188-78.277344c-1.699218-4.078125-6.382812-6.007813-10.460937-4.304687-4.078125 1.699218-6.007813 6.382812-4.304687 10.460937l40 96c1.242187 2.980469 4.152343 4.921875 7.382812 4.921875s6.140625-1.941406 7.382812-4.921875l40-96c1.703126-4.078125-.222656-8.761719-4.304687-10.460937zm0 0"
       id="path8" />
    <path
       d="m408 152h-24v-128c0-13.253906-10.746094-24-24-24h-248c-.167969 0-.3125.078125-.480469.0898438-.644531.0429682-1.285156.1640622-1.902343.3593752-.257813.066406-.507813.144531-.753907.238281-.839843.34375-1.613281.832031-2.289062 1.441406l-104 96c-.714844.683594-1.292969 1.496094-1.703125 2.398438-.117188.261718-.21875.527344-.304688.800781-.261718.71875-.417968 1.476563-.460937 2.238281 0 .167969-.105469.320313-.105469.488282v351.945312c0 13.253906 10.746094 24 24 24h336c13.253906 0 24-10.746094 24-24v-112h24c13.253906 0 24-10.746094 24-24v-144c0-13.253906-10.746094-24-24-24zm-304-125.726562v61.726562c0 4.417969-3.582031 8-8 8h-67.535156zm264 429.726562c0 4.417969-3.582031 8-8 8h-336c-4.417969 0-8-3.582031-8-8v-344h80c13.253906 0 24-10.746094 24-24v-72h240c4.417969 0 8 3.582031 8 8v128h-264c-13.253906 0-24 10.746094-24 24v144c0 13.253906 10.746094 24 24 24h264zm48-136c0 4.417969-3.582031 8-8 8h-304c-4.417969 0-8-3.582031-8-8v-144c0-4.417969 3.582031-8 8-8h304c4.417969 0 8 3.582031 8 8zm0 0"
       id="path10" />
  </g>
</svg>
